<svg width="56" height="238" viewBox="0 0 56 238" fill="none" xmlns="http://www.w3.org/2000/svg">
<rect x="6" y="2" width="44" height="236" rx="15" fill="#3A3A3C"/>
<g filter="url(#filter0_dd_7_138)">
<rect x="8" y="4" width="40" height="40" rx="15" fill="#787880" fill-opacity="0.36"/>
<rect x="8.25" y="4.25" width="39.5" height="39.5" rx="14.75" stroke="black" stroke-opacity="0.5" stroke-width="0.5"/>
<path fill-rule="evenodd" clip-rule="evenodd" d="M31.5 18.75C30.5335 18.75 29.75 19.5335 29.75 20.5V27.5C29.75 28.4665 30.5335 29.25 31.5 29.25C32.4665 29.25 33.25 28.4665 33.25 27.5C33.25 26.5335 32.4665 25.75 31.5 25.75H24.5C23.5335 25.75 22.75 26.5335 22.75 27.5C22.75 28.4665 23.5335 29.25 24.5 29.25C25.4665 29.25 26.25 28.4665 26.25 27.5V20.5C26.25 19.5335 25.4665 18.75 24.5 18.75C23.5335 18.75 22.75 19.5335 22.75 20.5C22.75 21.4665 23.5335 22.25 24.5 22.25H31.5C32.4665 22.25 33.25 21.4665 33.25 20.5C33.25 19.5335 32.4665 18.75 31.5 18.75Z" stroke="white" stroke-width="1.16667" stroke-linecap="round" stroke-linejoin="round"/>
</g>
<path d="M33.3724 74.2692C32.3515 76.6836 29.8455 78.1204 27.2461 77.7818C24.6467 77.4431 22.5925 75.4122 22.2242 72.8169C21.8559 70.2216 23.264 67.6993 25.6666 66.6509" stroke="#EBEBF5" stroke-opacity="0.3" stroke-width="1.16667" stroke-linecap="round" stroke-linejoin="round"/>
<path fill-rule="evenodd" clip-rule="evenodd" d="M33.8333 72C33.8333 70.4529 33.2188 68.9692 32.1248 67.8752C31.0308 66.7813 29.5471 66.1667 28 66.1667V72H33.8333Z" stroke="#EBEBF5" stroke-opacity="0.3" stroke-width="1.16667" stroke-linecap="round" stroke-linejoin="round"/>
<path fill-rule="evenodd" clip-rule="evenodd" d="M27.9998 125.833C31.2215 125.833 33.8332 123.222 33.8332 120C33.8332 116.778 31.2215 114.167 27.9998 114.167C24.7782 114.167 22.1665 116.778 22.1665 120C22.1665 123.222 24.7782 125.833 27.9998 125.833Z" stroke="#EBEBF5" stroke-opacity="0.3" stroke-width="1.16667" stroke-linecap="round" stroke-linejoin="round"/>
<path d="M28 116.5V120L29.75 121.75" stroke="#EBEBF5" stroke-opacity="0.3" stroke-width="1.16667" stroke-linecap="round" stroke-linejoin="round"/>
<path fill-rule="evenodd" clip-rule="evenodd" d="M27.9998 173.833C31.2215 173.833 33.8332 171.222 33.8332 168C33.8332 164.778 31.2215 162.167 27.9998 162.167C24.7782 162.167 22.1665 164.778 22.1665 168C22.1665 171.222 24.7782 173.833 27.9998 173.833Z" stroke="#EBEBF5" stroke-opacity="0.3" stroke-width="1.16667" stroke-linecap="round" stroke-linejoin="round"/>
<path d="M22.1665 168H33.8332" stroke="#EBEBF5" stroke-opacity="0.3" stroke-width="1.16667" stroke-linecap="round" stroke-linejoin="round"/>
<path fill-rule="evenodd" clip-rule="evenodd" d="M27.9998 162.167C29.4589 163.764 30.2881 165.837 30.3332 168C30.2881 170.163 29.4589 172.236 27.9998 173.833C26.5408 172.236 25.7116 170.163 25.6665 168C25.7116 165.837 26.5408 163.764 27.9998 162.167V162.167Z" stroke="#EBEBF5" stroke-opacity="0.3" stroke-width="1.16667" stroke-linecap="round" stroke-linejoin="round"/>
<path d="M28 210.167V212.5" stroke="#EBEBF5" stroke-opacity="0.3" stroke-width="1.16667" stroke-linecap="round" stroke-linejoin="round"/>
<path d="M28 219.5V221.833" stroke="#EBEBF5" stroke-opacity="0.3" stroke-width="1.16667" stroke-linecap="round" stroke-linejoin="round"/>
<path d="M23.876 211.876L25.5268 213.527" stroke="#EBEBF5" stroke-opacity="0.3" stroke-width="1.16667" stroke-linecap="round" stroke-linejoin="round"/>
<path d="M30.4736 218.473L32.1245 220.124" stroke="#EBEBF5" stroke-opacity="0.3" stroke-width="1.16667" stroke-linecap="round" stroke-linejoin="round"/>
<path d="M22.1665 216H24.4998" stroke="#EBEBF5" stroke-opacity="0.3" stroke-width="1.16667" stroke-linecap="round" stroke-linejoin="round"/>
<path d="M31.5 216H33.8333" stroke="#EBEBF5" stroke-opacity="0.3" stroke-width="1.16667" stroke-linecap="round" stroke-linejoin="round"/>
<path d="M23.876 220.124L25.5268 218.473" stroke="#EBEBF5" stroke-opacity="0.3" stroke-width="1.16667" stroke-linecap="round" stroke-linejoin="round"/>
<path d="M30.4736 213.527L32.1245 211.876" stroke="#EBEBF5" stroke-opacity="0.3" stroke-width="1.16667" stroke-linecap="round" stroke-linejoin="round"/>
<defs>
<filter id="filter0_dd_7_138" x="0" y="0" width="56" height="56" filterUnits="userSpaceOnUse" color-interpolation-filters="sRGB">
<feFlood flood-opacity="0" result="BackgroundImageFix"/>
<feColorMatrix in="SourceAlpha" type="matrix" values="0 0 0 0 0 0 0 0 0 0 0 0 0 0 0 0 0 0 127 0" result="hardAlpha"/>
<feOffset dy="4"/>
<feGaussianBlur stdDeviation="4"/>
<feColorMatrix type="matrix" values="0 0 0 0 0.196078 0 0 0 0 0.196078 0 0 0 0 0.278431 0 0 0 0.01 0"/>
<feBlend mode="normal" in2="BackgroundImageFix" result="effect1_dropShadow_7_138"/>
<feColorMatrix in="SourceAlpha" type="matrix" values="0 0 0 0 0 0 0 0 0 0 0 0 0 0 0 0 0 0 127 0" result="hardAlpha"/>
<feOffset dy="4"/>
<feGaussianBlur stdDeviation="2"/>
<feColorMatrix type="matrix" values="0 0 0 0 0 0 0 0 0 0 0 0 0 0 0 0 0 0 0.08 0"/>
<feBlend mode="normal" in2="effect1_dropShadow_7_138" result="effect2_dropShadow_7_138"/>
<feBlend mode="normal" in="SourceGraphic" in2="effect2_dropShadow_7_138" result="shape"/>
</filter>
</defs>
</svg>
