<svg width="200" height="200" viewBox="0 0 200 200" fill="none" xmlns="http://www.w3.org/2000/svg">
<path opacity="0.2" d="M137.789 181.682C140.108 186.695 137.935 192.69 132.717 194.497C116.219 200.209 98.5071 201.502 81.3552 198.247C75.9293 197.217 72.9093 191.601 74.4756 186.305C76.0419 181.009 81.6035 178.052 87.0536 178.946C99.4999 180.987 112.257 180.056 124.275 176.228C129.538 174.552 135.47 176.67 137.789 181.682Z" fill="#5E5CE6"/>
<path d="M72.1885 185.595C70.4818 190.848 64.8138 193.768 59.7579 191.545C48.858 186.754 38.8759 180.043 30.2997 171.707C19.3274 161.042 10.949 148.001 5.80947 133.588C0.669979 119.175 -1.09346 103.775 0.654931 88.5738C2.40332 73.3724 7.6169 58.775 15.8943 45.9054C24.1716 33.0359 35.292 22.2375 48.3991 14.3417C61.5062 6.44591 76.2505 1.66333 91.4967 0.362187C106.743 -0.938958 122.084 1.27604 136.34 6.83664C147.482 11.1829 157.729 17.4825 166.61 25.4134C170.729 29.0921 170.422 35.4609 166.351 39.1924C162.279 42.9238 155.989 42.5919 151.779 39.0173C145.032 33.2879 137.362 28.7029 129.072 25.4693C117.668 21.0208 105.394 19.2488 93.1974 20.2897C81.0004 21.3307 69.205 25.1567 58.7193 31.4734C48.2336 37.79 39.3373 46.4287 32.7154 56.7243C26.0935 67.02 21.9227 78.6979 20.5239 90.8591C19.1252 103.02 20.536 115.34 24.6476 126.87C28.7592 138.4 35.4619 148.833 44.2398 157.365C50.6203 163.568 57.9736 168.645 65.9856 172.409C70.9844 174.757 73.8951 180.343 72.1885 185.595Z" fill="#5E5CE6"/>
<path opacity="0.5" d="M168.106 41.1643C172.285 37.5539 178.646 37.9895 181.821 42.5084C188.637 52.2089 193.69 63.0669 196.716 74.5847C200.592 89.3343 201.043 104.775 198.035 119.726C195.027 134.676 188.639 148.741 179.36 160.844C172.114 170.295 163.256 178.354 153.218 184.663C148.542 187.602 142.508 185.544 140.05 180.598C137.592 175.652 139.654 169.7 144.254 166.645C151.595 161.771 158.099 155.704 163.488 148.675C170.911 138.993 176.022 127.741 178.428 115.781C180.835 103.82 180.474 91.4674 177.373 79.6678C175.122 71.1015 171.47 62.9913 166.586 55.6574C163.525 51.0605 163.926 44.7748 168.106 41.1643Z" fill="#5E5CE6"/>
<g clip-path="url(#clip0_7_235)">
<path d="M46.1626 92.57H36.8026V96.71C37.2026 96.27 37.7626 95.91 38.4826 95.63C39.2026 95.35 39.9826 95.21 40.8226 95.21C42.3226 95.21 43.5626 95.55 44.5426 96.23C45.5426 96.91 46.2726 97.79 46.7326 98.87C47.1926 99.95 47.4226 101.12 47.4226 102.38C47.4226 104.72 46.7626 106.58 45.4426 107.96C44.1226 109.32 42.2626 110 39.8626 110C38.2626 110 36.8726 109.73 35.6926 109.19C34.5126 108.63 33.6026 107.86 32.9626 106.88C32.3226 105.9 31.9726 104.77 31.9126 103.49H36.9226C37.0426 104.11 37.3326 104.63 37.7926 105.05C38.2526 105.45 38.8826 105.65 39.6826 105.65C40.6226 105.65 41.3226 105.35 41.7826 104.75C42.2426 104.15 42.4726 103.35 42.4726 102.35C42.4726 101.37 42.2326 100.62 41.7526 100.1C41.2726 99.58 40.5726 99.32 39.6526 99.32C38.9726 99.32 38.4126 99.49 37.9726 99.83C37.5326 100.15 37.2426 100.58 37.1026 101.12H32.1526V88.07H46.1626V92.57ZM56.2843 105.26L52.9543 113.87H49.6843L51.4243 105.26H56.2843ZM62.4676 98.24C60.5876 97.24 59.6476 95.67 59.6476 93.53C59.6476 92.45 59.9276 91.47 60.4876 90.59C61.0476 89.69 61.8976 88.98 63.0376 88.46C64.1776 87.92 65.5776 87.65 67.2376 87.65C68.8976 87.65 70.2876 87.92 71.4076 88.46C72.5476 88.98 73.3976 89.69 73.9576 90.59C74.5176 91.47 74.7976 92.45 74.7976 93.53C74.7976 94.61 74.5376 95.55 74.0176 96.35C73.5176 97.15 72.8376 97.78 71.9776 98.24C73.0576 98.76 73.8876 99.48 74.4676 100.4C75.0476 101.3 75.3376 102.36 75.3376 103.58C75.3376 105 74.9776 106.23 74.2576 107.27C73.5376 108.29 72.5576 109.07 71.3176 109.61C70.0976 110.15 68.7376 110.42 67.2376 110.42C65.7376 110.42 64.3676 110.15 63.1276 109.61C61.9076 109.07 60.9376 108.29 60.2176 107.27C59.4976 106.23 59.1376 105 59.1376 103.58C59.1376 102.34 59.4276 101.27 60.0076 100.37C60.5876 99.45 61.4076 98.74 62.4676 98.24ZM69.8176 94.31C69.8176 93.49 69.5776 92.86 69.0976 92.42C68.6376 91.96 68.0176 91.73 67.2376 91.73C66.4576 91.73 65.8276 91.96 65.3476 92.42C64.8876 92.88 64.6576 93.52 64.6576 94.34C64.6576 95.12 64.8976 95.74 65.3776 96.2C65.8576 96.64 66.4776 96.86 67.2376 96.86C67.9976 96.86 68.6176 96.63 69.0976 96.17C69.5776 95.71 69.8176 95.09 69.8176 94.31ZM67.2376 100.46C66.2976 100.46 65.5376 100.72 64.9576 101.24C64.3776 101.74 64.0876 102.44 64.0876 103.34C64.0876 104.18 64.3676 104.87 64.9276 105.41C65.5076 105.95 66.2776 106.22 67.2376 106.22C68.1976 106.22 68.9476 105.95 69.4876 105.41C70.0476 104.87 70.3276 104.18 70.3276 103.34C70.3276 102.46 70.0376 101.76 69.4576 101.24C68.8976 100.72 68.1576 100.46 67.2376 100.46ZM78.1407 105.89C78.8207 105.35 79.1307 105.1 79.0707 105.14C81.0307 103.52 82.5707 102.19 83.6907 101.15C84.8307 100.11 85.7907 99.02 86.5707 97.88C87.3507 96.74 87.7407 95.63 87.7407 94.55C87.7407 93.73 87.5507 93.09 87.1707 92.63C86.7907 92.17 86.2207 91.94 85.4607 91.94C84.7007 91.94 84.1007 92.23 83.6607 92.81C83.2407 93.37 83.0307 94.17 83.0307 95.21H78.0807C78.1207 93.51 78.4807 92.09 79.1607 90.95C79.8607 89.81 80.7707 88.97 81.8907 88.43C83.0307 87.89 84.2907 87.62 85.6707 87.62C88.0507 87.62 89.8407 88.23 91.0407 89.45C92.2607 90.67 92.8707 92.26 92.8707 94.22C92.8707 96.36 92.1407 98.35 90.6807 100.19C89.2207 102.01 87.3607 103.79 85.1007 105.53H93.2007V109.7H78.1407V105.89ZM95.5794 106.1V101.96L105.059 88.4H110.789V101.66H113.249V106.1H110.789V110H105.659V106.1H95.5794ZM106.019 94.04L100.979 101.66H106.019V94.04ZM121.792 105.26L118.462 113.87H115.192L116.932 105.26H121.792ZM124.195 105.89C124.875 105.35 125.185 105.1 125.125 105.14C127.085 103.52 128.625 102.19 129.745 101.15C130.885 100.11 131.845 99.02 132.625 97.88C133.405 96.74 133.795 95.63 133.795 94.55C133.795 93.73 133.605 93.09 133.225 92.63C132.845 92.17 132.275 91.94 131.515 91.94C130.755 91.94 130.155 92.23 129.715 92.81C129.295 93.37 129.085 94.17 129.085 95.21H124.135C124.175 93.51 124.535 92.09 125.215 90.95C125.915 89.81 126.825 88.97 127.945 88.43C129.085 87.89 130.345 87.62 131.725 87.62C134.105 87.62 135.895 88.23 137.095 89.45C138.315 90.67 138.925 92.26 138.925 94.22C138.925 96.36 138.195 98.35 136.735 100.19C135.275 102.01 133.415 103.79 131.155 105.53H139.255V109.7H124.195V105.89ZM140.974 92.87V88.1H149.284V110H143.944V92.87H140.974ZM152.973 94.28C153.053 92.14 153.753 90.49 155.073 89.33C156.393 88.17 158.183 87.59 160.443 87.59C161.943 87.59 163.223 87.85 164.283 88.37C165.363 88.89 166.173 89.6 166.713 90.5C167.273 91.4 167.553 92.41 167.553 93.53C167.553 94.85 167.223 95.93 166.563 96.77C165.903 97.59 165.133 98.15 164.253 98.45V98.57C165.393 98.95 166.293 99.58 166.953 100.46C167.613 101.34 167.943 102.47 167.943 103.85C167.943 105.09 167.653 106.19 167.073 107.15C166.513 108.09 165.683 108.83 164.583 109.37C163.503 109.91 162.213 110.18 160.713 110.18C158.313 110.18 156.393 109.59 154.953 108.41C153.533 107.23 152.783 105.45 152.703 103.07H157.683C157.703 103.95 157.953 104.65 158.433 105.17C158.913 105.67 159.613 105.92 160.533 105.92C161.313 105.92 161.913 105.7 162.333 105.26C162.773 104.8 162.993 104.2 162.993 103.46C162.993 102.5 162.683 101.81 162.063 101.39C161.463 100.95 160.493 100.73 159.153 100.73H158.193V96.56H159.153C160.173 96.56 160.993 96.39 161.613 96.05C162.253 95.69 162.573 95.06 162.573 94.16C162.573 93.44 162.373 92.88 161.973 92.48C161.573 92.08 161.023 91.88 160.323 91.88C159.563 91.88 158.993 92.11 158.613 92.57C158.253 93.03 158.043 93.6 157.983 94.28H152.973Z" fill="white"/>
<path d="M80.9927 143.816H84.8967V145H79.5367V133.848H80.9927V143.816ZM85.8989 140.584C85.8989 139.688 86.0803 138.904 86.4429 138.232C86.8056 137.549 87.3016 137.021 87.9309 136.648C88.5709 136.275 89.2803 136.088 90.0589 136.088C90.8269 136.088 91.4936 136.253 92.0589 136.584C92.6243 136.915 93.0456 137.331 93.3229 137.832V136.232H94.7949V145H93.3229V143.368C93.0349 143.88 92.6029 144.307 92.0269 144.648C91.4616 144.979 90.8003 145.144 90.0429 145.144C89.2643 145.144 88.5603 144.952 87.9309 144.568C87.3016 144.184 86.8056 143.645 86.4429 142.952C86.0803 142.259 85.8989 141.469 85.8989 140.584ZM93.3229 140.6C93.3229 139.939 93.1896 139.363 92.9229 138.872C92.6563 138.381 92.2936 138.008 91.8349 137.752C91.3869 137.485 90.8909 137.352 90.3469 137.352C89.8029 137.352 89.3069 137.48 88.8589 137.736C88.4109 137.992 88.0536 138.365 87.7869 138.856C87.5203 139.347 87.3869 139.923 87.3869 140.584C87.3869 141.256 87.5203 141.843 87.7869 142.344C88.0536 142.835 88.4109 143.213 88.8589 143.48C89.3069 143.736 89.8029 143.864 90.3469 143.864C90.8909 143.864 91.3869 143.736 91.8349 143.48C92.2936 143.213 92.6563 142.835 92.9229 142.344C93.1896 141.843 93.3229 141.261 93.3229 140.6ZM98.7114 137.864C99.0101 137.341 99.4474 136.915 100.023 136.584C100.599 136.253 101.255 136.088 101.991 136.088C102.781 136.088 103.49 136.275 104.119 136.648C104.749 137.021 105.245 137.549 105.607 138.232C105.97 138.904 106.151 139.688 106.151 140.584C106.151 141.469 105.97 142.259 105.607 142.952C105.245 143.645 104.743 144.184 104.103 144.568C103.474 144.952 102.77 145.144 101.991 145.144C101.234 145.144 100.567 144.979 99.9914 144.648C99.4261 144.317 98.9994 143.896 98.7114 143.384V145H97.2554V133.16H98.7114V137.864ZM104.663 140.584C104.663 139.923 104.53 139.347 104.263 138.856C103.997 138.365 103.634 137.992 103.175 137.736C102.727 137.48 102.231 137.352 101.687 137.352C101.154 137.352 100.658 137.485 100.199 137.752C99.7514 138.008 99.3888 138.387 99.1114 138.888C98.8448 139.379 98.7114 139.949 98.7114 140.6C98.7114 141.261 98.8448 141.843 99.1114 142.344C99.3888 142.835 99.7514 143.213 100.199 143.48C100.658 143.736 101.154 143.864 101.687 143.864C102.231 143.864 102.727 143.736 103.175 143.48C103.634 143.213 103.997 142.835 104.263 142.344C104.53 141.843 104.663 141.256 104.663 140.584ZM116.068 140.28C116.068 140.557 116.052 140.851 116.02 141.16H109.012C109.065 142.024 109.359 142.701 109.892 143.192C110.436 143.672 111.092 143.912 111.86 143.912C112.489 143.912 113.012 143.768 113.428 143.48C113.855 143.181 114.153 142.787 114.324 142.296H115.892C115.657 143.139 115.188 143.827 114.484 144.36C113.78 144.883 112.905 145.144 111.86 145.144C111.028 145.144 110.281 144.957 109.62 144.584C108.969 144.211 108.457 143.683 108.084 143C107.711 142.307 107.524 141.507 107.524 140.6C107.524 139.693 107.705 138.899 108.068 138.216C108.431 137.533 108.937 137.011 109.588 136.648C110.249 136.275 111.007 136.088 111.86 136.088C112.692 136.088 113.428 136.269 114.068 136.632C114.708 136.995 115.199 137.496 115.54 138.136C115.892 138.765 116.068 139.48 116.068 140.28ZM114.564 139.976C114.564 139.421 114.441 138.947 114.196 138.552C113.951 138.147 113.615 137.843 113.188 137.64C112.772 137.427 112.308 137.32 111.796 137.32C111.06 137.32 110.431 137.555 109.908 138.024C109.396 138.493 109.103 139.144 109.028 139.976H114.564ZM119.446 133.16V145H117.99V133.16H119.446Z" fill="#EBEBF5" fill-opacity="0.3"/>
</g>
<defs>
<clipPath id="clip0_7_235">
<rect width="141" height="75" fill="white" transform="translate(29 76)"/>
</clipPath>
</defs>
</svg>
