<svg width="282" height="112" viewBox="0 0 282 112" fill="none" xmlns="http://www.w3.org/2000/svg">
<g clip-path="url(#clip0_7_319)" filter="url(#filter0_dd_7_319)">
<path fill-rule="evenodd" clip-rule="evenodd" d="M96.9451 17.2308H258.308C262.556 17.2308 266 20.6747 266 24.9231V71.0769C266 75.3253 262.556 78.7692 258.308 78.7692H96.9451C90.0139 84.5334 81.1041 88 71.3846 88C61.6652 88 52.7554 84.5334 45.8242 78.7692H23.6923C19.444 78.7692 16 75.3253 16 71.0769V24.9231C16 20.6747 19.444 17.2308 23.6923 17.2308H45.8242C52.7553 11.4666 61.6652 8 71.3846 8C81.1041 8 90.0139 11.4666 96.9451 17.2308Z" fill="#2C2C2E"/>
<path opacity="0.7" d="M101.385 48C101.385 64.5685 87.9533 78 71.3848 78C54.8162 78 41.3848 64.5685 41.3848 48C41.3848 31.4315 54.8162 18 71.3848 18C87.9533 18 101.385 31.4315 101.385 48ZM47.3848 48C47.3848 61.2548 58.1299 72 71.3848 72C84.6396 72 95.3848 61.2548 95.3848 48C95.3848 34.7452 84.6396 24 71.3848 24C58.1299 24 47.3848 34.7452 47.3848 48Z" fill="#787880" fill-opacity="0.32"/>
<path d="M71.3848 21C71.3848 19.3431 72.7314 17.9844 74.38 18.1498C80.5999 18.7738 86.4977 21.3297 91.2241 25.4967C96.7039 30.3277 100.233 36.9923 101.148 44.24C102.064 51.4877 100.303 58.8204 96.1972 64.8625C92.6555 70.0739 87.5786 74.0163 81.7093 76.1675C80.1537 76.7377 78.5115 75.7565 78.0994 74.1517C77.6874 72.5469 78.6642 70.9294 80.2051 70.3205C84.663 68.5589 88.5148 65.4923 91.2347 61.49C94.5197 56.6563 95.928 50.7901 95.1955 44.992C94.463 39.1938 91.6401 33.8622 87.2562 29.9973C83.6264 26.7972 79.133 24.7848 74.3771 24.1872C72.7332 23.9807 71.3848 22.6569 71.3848 21Z" fill="#5E5CE6"/>
<path d="M60.3358 50.5993L61.7512 48.3347C62.0097 47.8424 62.2558 47.3378 62.4773 46.8455H62.5266C62.502 47.387 62.465 48.2117 62.465 48.7409V50.5993H60.3358ZM62.465 54.3409H64.1512V51.9778H65.222V50.5993H64.1512V45.2209H61.9727L58.5758 50.747V51.9778H62.465V54.3409ZM69.3557 49.8855C70.1434 49.8855 70.6603 50.3901 70.6603 51.4609C70.6603 52.5809 70.0942 53.147 69.4173 53.147C68.6542 53.147 68.0388 52.507 67.8665 50.8455C68.2849 50.1563 68.8634 49.8855 69.3557 49.8855ZM69.4542 54.5132C71.0049 54.5132 72.3096 53.3317 72.3096 51.4609C72.3096 49.5163 71.2265 48.6055 69.7003 48.6055C69.1096 48.6055 68.3219 48.9747 67.8296 49.5901C67.9034 47.3009 68.7649 46.5132 69.8111 46.5132C70.3403 46.5132 70.8942 46.8086 71.2142 47.1778L72.1742 46.0947C71.6203 45.5286 70.8203 45.0609 69.7003 45.0609C67.8665 45.0609 66.1803 46.5132 66.1803 49.9101C66.1803 53.1224 67.7188 54.5132 69.4542 54.5132ZM75.4218 50.8332C76.7264 50.8332 77.6495 49.7624 77.6495 47.9286C77.6495 46.107 76.7264 45.0609 75.4218 45.0609C74.1172 45.0609 73.2064 46.107 73.2064 47.9286C73.2064 49.7624 74.1172 50.8332 75.4218 50.8332ZM75.4218 49.8117C74.8925 49.8117 74.4864 49.2701 74.4864 47.9286C74.4864 46.587 74.8925 46.0824 75.4218 46.0824C75.951 46.0824 76.3695 46.587 76.3695 47.9286C76.3695 49.2701 75.951 49.8117 75.4218 49.8117ZM75.7295 54.5132H76.8002L81.7479 45.0609H80.6772L75.7295 54.5132ZM82.0433 54.5132C83.3356 54.5132 84.271 53.4301 84.271 51.6086C84.271 49.7747 83.3356 48.7286 82.0433 48.7286C80.751 48.7286 79.8279 49.7747 79.8279 51.6086C79.8279 53.4301 80.751 54.5132 82.0433 54.5132ZM82.0433 53.4793C81.5141 53.4793 81.1079 52.9501 81.1079 51.6086C81.1079 50.267 81.5141 49.7501 82.0433 49.7501C82.5725 49.7501 82.991 50.267 82.991 51.6086C82.991 52.9501 82.5725 53.4793 82.0433 53.4793Z" fill="white"/>
<path d="M226.441 49.4633H228.404V48.6723H226.441V46.6118H225.65V48.6723H223.688V49.4633H225.65V51.5239H226.441V49.4633ZM230.03 46.7875H230.88C230.88 45.9526 231.441 45.4008 232.286 45.4008C233.116 45.4008 233.619 45.9575 233.619 46.7045C233.619 47.3246 233.355 47.6909 232.457 48.6625L230.074 51.2407V51.8461H234.635V51.0551H231.295V50.977L232.896 49.3217C234.166 48.0082 234.518 47.4223 234.518 46.6118C234.518 45.4692 233.575 44.6342 232.345 44.6342C230.997 44.6342 230.03 45.5327 230.03 46.7875ZM238.463 52.0121C239.903 52.0121 240.885 51.0161 240.885 49.5659C240.885 48.1694 239.908 47.2416 238.727 47.2416C238.023 47.2416 237.501 47.4565 237.159 47.8813H237.081L237.301 45.5864H240.523V44.8002H236.612L236.207 48.8286H237.032C237.311 48.3061 237.838 47.9985 238.507 47.9985C239.396 47.9985 240.006 48.6381 240.006 49.5903C240.006 50.5766 239.396 51.2407 238.473 51.2407C237.643 51.2407 237.037 50.7377 236.959 49.9858H236.095C236.173 51.1918 237.13 52.0121 238.463 52.0121ZM243.37 47.9887C244.322 47.9887 244.898 47.3686 244.898 46.3286C244.898 45.3032 244.317 44.6733 243.37 44.6733C242.423 44.6733 241.837 45.3032 241.837 46.3286C241.837 47.3637 242.413 47.9887 243.37 47.9887ZM243.688 51.8461L248.556 44.8002H247.76L242.892 51.8461H243.688ZM243.37 47.3491C242.877 47.3491 242.594 46.978 242.594 46.3334C242.594 45.6938 242.877 45.3178 243.37 45.3178C243.858 45.3178 244.142 45.6938 244.142 46.3334C244.142 46.9731 243.863 47.3491 243.37 47.3491ZM248.082 51.9145C249.034 51.9145 249.61 51.2944 249.61 50.2543C249.61 49.2289 249.029 48.5991 248.082 48.5991C247.135 48.5991 246.549 49.2289 246.549 50.2543C246.549 51.2895 247.13 51.9145 248.082 51.9145ZM248.082 51.2748C247.589 51.2748 247.311 50.9037 247.311 50.2592C247.311 49.6196 247.589 49.2436 248.082 49.2436C248.575 49.2436 248.854 49.6196 248.854 50.2592C248.854 50.8989 248.575 51.2748 248.082 51.2748Z" fill="#5E5CE6"/>
<path d="M121.846 54.5385H126.929V53.5661H122.991V45.5046H121.846V54.5385ZM130.969 54.6985C131.88 54.6985 132.594 54.3908 133.185 54.0092L132.779 53.2708C132.286 53.6031 131.757 53.8 131.105 53.8C129.837 53.8 128.963 52.8892 128.889 51.4615H133.394C133.419 51.3015 133.443 51.0677 133.443 50.8215C133.443 48.9138 132.483 47.6831 130.785 47.6831C129.234 47.6831 127.769 49.0369 127.769 51.2031C127.769 53.4061 129.197 54.6985 130.969 54.6985ZM128.877 50.6492C129.012 49.3446 129.849 48.5815 130.797 48.5815C131.843 48.5815 132.459 49.3077 132.459 50.6492H128.877ZM137.209 57.6154C139.277 57.6154 140.594 56.5446 140.594 55.3015C140.594 54.2061 139.806 53.7138 138.255 53.7138H136.951C136.052 53.7138 135.781 53.4185 135.781 52.9877C135.781 52.6185 135.966 52.3969 136.212 52.1877C136.507 52.3354 136.877 52.4215 137.209 52.4215C138.563 52.4215 139.646 51.5231 139.646 50.0954C139.646 49.5169 139.424 49.0246 139.104 48.7169H140.471V47.8554H138.144C137.911 47.7692 137.578 47.6831 137.209 47.6831C135.855 47.6831 134.698 48.6061 134.698 50.0708C134.698 50.8708 135.129 51.5108 135.572 51.8677V51.9169C135.227 52.1631 134.821 52.6061 134.821 53.16C134.821 53.6892 135.08 54.0461 135.437 54.2554V54.3046C134.809 54.7108 134.452 55.2523 134.452 55.8185C134.452 56.9754 135.572 57.6154 137.209 57.6154ZM137.209 51.6585C136.434 51.6585 135.781 51.0431 135.781 50.0708C135.781 49.0861 136.421 48.5077 137.209 48.5077C137.997 48.5077 138.637 49.0985 138.637 50.0708C138.637 51.0431 137.972 51.6585 137.209 51.6585ZM137.369 56.8523C136.163 56.8523 135.437 56.3846 135.437 55.6708C135.437 55.2769 135.634 54.8831 136.114 54.5385C136.409 54.6123 136.729 54.6492 136.975 54.6492H138.132C139.018 54.6492 139.498 54.8585 139.498 55.4738C139.498 56.1754 138.649 56.8523 137.369 56.8523ZM144.407 54.6985C145.318 54.6985 146.031 54.3908 146.622 54.0092L146.216 53.2708C145.724 53.6031 145.195 53.8 144.542 53.8C143.275 53.8 142.401 52.8892 142.327 51.4615H146.831C146.856 51.3015 146.881 51.0677 146.881 50.8215C146.881 48.9138 145.921 47.6831 144.222 47.6831C142.671 47.6831 141.207 49.0369 141.207 51.2031C141.207 53.4061 142.635 54.6985 144.407 54.6985ZM142.315 50.6492C142.45 49.3446 143.287 48.5815 144.235 48.5815C145.281 48.5815 145.896 49.3077 145.896 50.6492H142.315ZM148.526 54.5385H149.646V49.6892C150.323 49.0123 150.791 48.6677 151.48 48.6677C152.366 48.6677 152.748 49.1969 152.748 50.4523V54.5385H153.868V50.3046C153.868 48.5938 153.228 47.6831 151.825 47.6831C150.914 47.6831 150.225 48.1877 149.585 48.8154H149.548L149.449 47.8554H148.526V54.5385ZM158.327 54.6985C159.127 54.6985 159.829 54.2677 160.358 53.7508H160.395L160.494 54.5385H161.404V44.7415H160.297V47.3138L160.346 48.4708C159.755 47.9785 159.25 47.6831 158.463 47.6831C156.937 47.6831 155.57 49.0369 155.57 51.2031C155.57 53.4308 156.654 54.6985 158.327 54.6985ZM158.574 53.7631C157.392 53.7631 156.727 52.8031 156.727 51.1908C156.727 49.6646 157.577 48.6308 158.66 48.6308C159.214 48.6308 159.718 48.8277 160.297 49.3323V52.84C159.73 53.4554 159.189 53.7631 158.574 53.7631Z" fill="white"/>
</g>
<defs>
<filter id="filter0_dd_7_319" x="0" y="0" width="282" height="112" filterUnits="userSpaceOnUse" color-interpolation-filters="sRGB">
<feFlood flood-opacity="0" result="BackgroundImageFix"/>
<feColorMatrix in="SourceAlpha" type="matrix" values="0 0 0 0 0 0 0 0 0 0 0 0 0 0 0 0 0 0 127 0" result="hardAlpha"/>
<feOffset dy="8"/>
<feGaussianBlur stdDeviation="8"/>
<feColorMatrix type="matrix" values="0 0 0 0 0.196487 0 0 0 0 0.196487 0 0 0 0 0.279476 0 0 0 0.06 0"/>
<feBlend mode="multiply" in2="BackgroundImageFix" result="effect1_dropShadow_7_319"/>
<feColorMatrix in="SourceAlpha" type="matrix" values="0 0 0 0 0 0 0 0 0 0 0 0 0 0 0 0 0 0 127 0" result="hardAlpha"/>
<feOffset dy="8"/>
<feGaussianBlur stdDeviation="4"/>
<feColorMatrix type="matrix" values="0 0 0 0 0.196487 0 0 0 0 0.196487 0 0 0 0 0.279476 0 0 0 0.08 0"/>
<feBlend mode="multiply" in2="effect1_dropShadow_7_319" result="effect2_dropShadow_7_319"/>
<feBlend mode="normal" in="SourceGraphic" in2="effect2_dropShadow_7_319" result="shape"/>
</filter>
<clipPath id="clip0_7_319">
<rect width="250" height="80" fill="white" transform="translate(16 8)"/>
</clipPath>
</defs>
</svg>
